<?xml version="1.0" encoding="UTF-8" standalone="no"?>
<!-- Created with Inkscape (http://www.inkscape.org/) -->

<svg
   xmlns:dc="http://purl.org/dc/elements/1.1/"
   xmlns:cc="http://creativecommons.org/ns#"
   xmlns:rdf="http://www.w3.org/1999/02/22-rdf-syntax-ns#"
   xmlns:svg="http://www.w3.org/2000/svg"
   xmlns="http://www.w3.org/2000/svg"
   xmlns:sodipodi="http://sodipodi.sourceforge.net/DTD/sodipodi-0.dtd"
   xmlns:inkscape="http://www.inkscape.org/namespaces/inkscape"
   width="284.58084"
   height="120"
   id="svg3969"
   version="1.1"
   inkscape:version="0.48.3.1 r9886"
   sodipodi:docname="logo.svg">
  <defs
     id="defs3971">
    <inkscape:path-effect
       effect="spiro"
       id="path-effect3765"
       is_visible="true" />
    <inkscape:path-effect
       effect="spiro"
       id="path-effect2989"
       is_visible="true" />
  </defs>
  <sodipodi:namedview
     id="base"
     pagecolor="#ffffff"
     bordercolor="#666666"
     borderopacity="1.0"
     inkscape:pageopacity="0.0"
     inkscape:pageshadow="2"
     inkscape:zoom="3.959798"
     inkscape:cx="127.42365"
     inkscape:cy="40.655034"
     inkscape:document-units="px"
     inkscape:current-layer="layer1"
     showgrid="false"
     inkscape:window-width="1920"
     inkscape:window-height="1024"
     inkscape:window-x="0"
     inkscape:window-y="27"
     inkscape:window-maximized="1"
     fit-margin-top="0"
     fit-margin-left="0"
     fit-margin-right="0"
     fit-margin-bottom="0" />
  <metadata
     id="metadata3974">
    <rdf:RDF>
      <cc:Work
         rdf:about="">
        <dc:format>image/svg+xml</dc:format>
        <dc:type
           rdf:resource="http://purl.org/dc/dcmitype/StillImage" />
        <dc:title />
      </cc:Work>
    </rdf:RDF>
  </metadata>
  <g
     inkscape:label="Layer 1"
     inkscape:groupmode="layer"
     id="layer1"
     transform="translate(-232.70957,-472.36218)">
    <path
       style="fill:#96b02f;stroke:none;fill-opacity:1"
       d="m 252.29043,592.36218 19.27579,0 245.72421,0 c -1.1025,-10.56737 -4.54158,-20.88461 -10,-30 -8.01548,-13.3856 -20.22149,-23.95668 -33.85715,-31.53897 -13.63565,-7.58228 -28.69367,-12.31146 -43.9348,-15.64764 -30.48226,-6.67237 -62.20355,-7.99849 -91.75578,-18.01619 -4.49493,-1.5237 -8.95388,-3.25916 -12.98199,-5.76921 -4.02811,-2.51005 -7.63144,-5.84519 -9.89491,-10.01685 -1.50179,-2.76786 -2.38773,-5.8677 -2.57538,-9.01114 l -55.01287,0.0744 c -12.97628,17.39265 -21.28309,38.23565 -23.82721,59.78596 -0.89273,7.56196 -1.08668,15.24365 0.023,22.77683 2.06736,14.03444 8.77167,27.34637 18.81709,37.36281"
       id="path2987"
       inkscape:path-effect="#path-effect2989"
       inkscape:original-d="m 252.29043,592.36218 19.27579,0 245.72421,0 c 0,0 -2.86211,-17.76362 -10,-30 -7.13789,-12.23638 -144.22277,-58.09652 -169.54773,-65.2028 -25.32496,-7.10627 -15.88897,-6.19294 -22.8769,-15.78606 -6.98793,-9.59312 -2.57538,-9.01114 -2.57538,-9.01114 l -55.01287,0.0744 c 0,0 -19.91973,39.51084 -23.82721,59.78596 -3.90748,20.27592 -8.06243,9.82834 0.023,22.77683 8.08543,12.9485 18.8171,37.36281 18.81709,37.36281 z"
       inkscape:connector-curvature="0"
       sodipodi:nodetypes="ccczzzcczzc" />
    <g
       style="font-size:72px;font-style:normal;font-variant:normal;font-weight:normal;font-stretch:normal;line-height:125%;letter-spacing:0px;word-spacing:0px;fill:#ffffff;fill-opacity:1;stroke:none;font-family:Arial;-inkscape-font-specification:Arial"
       id="text3759">
      <path
         d="m 323.28262,577.75671 c -2.34377,1.99219 -4.60549,3.39844 -6.78515,4.21875 -2.15627,0.82032 -4.47658,1.23047 -6.96094,1.23047 -4.10157,0 -7.25391,-0.99609 -9.45703,-2.98828 -2.20313,-2.01562 -3.30469,-4.58202 -3.30469,-7.69922 0,-1.82811 0.41015,-3.49217 1.23047,-4.99218 0.84374,-1.52343 1.93359,-2.74217 3.26953,-3.65625 1.35937,-0.91405 2.8828,-1.60545 4.57031,-2.07422 1.24218,-0.32811 3.11718,-0.64451 5.625,-0.94922 5.10936,-0.60936 8.87107,-1.33592 11.28516,-2.17969 0.0234,-0.86716 0.0351,-1.41794 0.0352,-1.65234 -3e-5,-2.5781 -0.59769,-4.39451 -1.79297,-5.44922 -1.61722,-1.42966 -4.01956,-2.1445 -7.20703,-2.14453 -2.97658,3e-5 -5.17971,0.52737 -6.60938,1.58203 -1.40626,1.03128 -2.44923,2.87112 -3.12891,5.51953 l -6.1875,-0.84375 c 0.5625,-2.64841 1.48828,-4.78122 2.77735,-6.39844 1.28905,-1.64059 3.15233,-2.89449 5.58984,-3.76172 2.43749,-0.89058 5.2617,-1.3359 8.47266,-1.33593 3.18747,3e-5 5.77732,0.37503 7.76953,1.125 1.99216,0.75003 3.457,1.69925 4.39453,2.84765 0.93747,1.12503 1.59372,2.55472 1.96875,4.28906 0.2109,1.07816 0.31637,3.02347 0.31641,5.83594 l 0,8.4375 c -4e-5,5.88282 0.12887,9.60938 0.38672,11.17969 0.28121,1.54688 0.82027,3.03516 1.61718,4.46484 l -6.60937,0 c -0.65628,-1.3125 -1.07816,-2.84765 -1.26563,-4.60547 m -0.52734,-14.13281 c -2.2969,0.93752 -5.74221,1.73439 -10.33594,2.39063 -2.60158,0.37501 -4.44142,0.79689 -5.51953,1.26562 -1.07814,0.46877 -1.91017,1.16017 -2.49609,2.07422 -0.58595,0.89064 -0.87892,1.88673 -0.87891,2.98828 -10e-6,1.68751 0.6328,3.09376 1.89844,4.21875 1.28905,1.12501 3.16405,1.68751 5.625,1.6875 2.43748,10e-6 4.60545,-0.52734 6.5039,-1.58203 1.89842,-1.07812 3.29295,-2.54296 4.1836,-4.39453 0.67966,-1.42968 1.0195,-3.53905 1.01953,-6.32813 l 0,-2.32031"
         style="font-family:Arial;-inkscape-font-specification:Arial;fill:#ffffff;fill-opacity:1"
         id="path3002" />
      <path
         d="m 338.99747,582.36218 0,-37.33593 5.69531,0 0,5.30859 c 2.74217,-4.10153 6.70311,-6.15231 11.88281,-6.15234 2.24998,3e-5 4.31248,0.41019 6.1875,1.23046 1.89841,0.79692 3.31638,1.8516 4.25391,3.16407 0.93746,1.31253 1.59371,2.87112 1.96875,4.67578 0.23434,1.1719 0.35153,3.22268 0.35156,6.15234 l 0,22.95703 -6.32812,0 0,-22.71093 c -3e-5,-2.5781 -0.24613,-4.49998 -0.73829,-5.76563 -0.49221,-1.28903 -1.37112,-2.30856 -2.63671,-3.05859 -1.24222,-0.77341 -2.70706,-1.16013 -4.39454,-1.16016 -2.69533,3e-5 -5.02736,0.8555 -6.99609,2.56641 -1.94532,1.71096 -2.91798,4.95705 -2.91797,9.73828 l 0,20.39062 -6.32812,0"
         style="font-family:Arial;-inkscape-font-specification:Arial;fill:#ffffff;fill-opacity:1"
         id="path3004" />
      <path
         d="m 392.892,576.70203 0.91406,5.58984 c -1.78127,0.375 -3.37502,0.5625 -4.78125,0.5625 -2.29689,0 -4.07813,-0.36328 -5.34375,-1.08984 -1.26563,-0.72656 -2.15626,-1.67578 -2.67187,-2.84766 -0.51564,-1.19531 -0.77345,-3.6914 -0.77344,-7.48828 l 0,-21.48047 -4.64063,0 0,-4.92187 4.64063,0 0,-9.2461 6.29297,-3.79687 0,13.04297 6.36328,0 0,4.92187 -6.36328,0 0,21.83203 c -2e-5,1.8047 0.10545,2.96485 0.3164,3.48047 0.23437,0.51563 0.59765,0.92579 1.08985,1.23047 0.51561,0.30469 1.24217,0.45704 2.17968,0.45703 0.70311,10e-6 1.62889,-0.082 2.77735,-0.24609"
         style="font-family:Arial;-inkscape-font-specification:Arial;fill:#ffffff;fill-opacity:1"
         id="path3006" />
      <path
         d="m 424.60294,570.33875 6.53906,0.80859 c -1.03129,3.82032 -2.94144,6.78516 -5.73047,8.89453 -2.78909,2.10938 -6.35159,3.16406 -10.6875,3.16406 -5.46095,0 -9.79689,-1.67578 -13.00781,-5.02734 -3.18751,-3.37499 -4.78126,-8.09765 -4.78125,-14.16797 -1e-5,-6.28123 1.61718,-11.15622 4.85156,-14.625 3.23436,-3.46871 7.42967,-5.20309 12.58594,-5.20312 4.99216,3e-5 9.07028,1.69925 12.23437,5.09765 3.16403,3.39847 4.74606,8.17971 4.7461,14.34375 -4e-5,0.37502 -0.0118,0.93752 -0.0352,1.6875 l -27.84375,0 c 0.23437,4.10158 1.39452,7.2422 3.48047,9.42188 2.08592,2.17969 4.68748,3.26953 7.80469,3.26953 2.32029,0 4.30075,-0.60937 5.9414,-1.82813 1.6406,-1.21874 2.94138,-3.16405 3.90235,-5.83593 m -20.77735,-10.23047 20.84766,0 c -0.28128,-3.1406 -1.07816,-5.49607 -2.39063,-7.06641 -2.01565,-2.43747 -4.62893,-3.65622 -7.83984,-3.65625 -2.90627,3e-5 -5.35548,0.97269 -7.34766,2.91797 -1.96876,1.94534 -3.0586,4.5469 -3.26953,7.80469"
         style="font-family:Arial;-inkscape-font-specification:Arial;fill:#ffffff;fill-opacity:1"
         id="path3008" />
      <path
         d="m 438.98184,582.36218 0,-51.53906 6.32813,0 0,51.53906 -6.32813,0"
         style="font-family:Arial;-inkscape-font-specification:Arial;fill:#ffffff;fill-opacity:1"
         id="path3010" />
      <path
         d="m 480.71231,570.33875 6.53906,0.80859 c -1.03128,3.82032 -2.94144,6.78516 -5.73047,8.89453 -2.78909,2.10938 -6.35158,3.16406 -10.6875,3.16406 -5.46095,0 -9.79688,-1.67578 -13.00781,-5.02734 -3.1875,-3.37499 -4.78125,-8.09765 -4.78125,-14.16797 0,-6.28123 1.61719,-11.15622 4.85156,-14.625 3.23437,-3.46871 7.42968,-5.20309 12.58594,-5.20312 4.99216,3e-5 9.07029,1.69925 12.23438,5.09765 3.16402,3.39847 4.74605,8.17971 4.74609,14.34375 -4e-5,0.37502 -0.0118,0.93752 -0.0352,1.6875 l -27.84375,0 c 0.23437,4.10158 1.39453,7.2422 3.48047,9.42188 2.08593,2.17969 4.68749,3.26953 7.80469,3.26953 2.32029,0 4.30076,-0.60937 5.94141,-1.82813 1.64059,-1.21874 2.94137,-3.16405 3.90234,-5.83593 m -20.77734,-10.23047 20.84765,0 c -0.28128,-3.1406 -1.07815,-5.49607 -2.39062,-7.06641 -2.01565,-2.43747 -4.62893,-3.65622 -7.83985,-3.65625 -2.90626,3e-5 -5.35548,0.97269 -7.34765,2.91797 -1.96876,1.94534 -3.05861,4.5469 -3.26953,7.80469"
         style="font-family:Arial;-inkscape-font-specification:Arial;fill:#ffffff;fill-opacity:1"
         id="path3012" />
    </g>
    <path
       style="fill:#005500;stroke:#005500;stroke-width:6.84323359;stroke-linecap:butt;stroke-linejoin:miter;stroke-miterlimit:4;stroke-opacity:1;stroke-dasharray:none"
       d="m 263.09018,482.36218 0,100"
       id="path3763"
       inkscape:path-effect="#path-effect3765"
       inkscape:original-d="m 263.09018,482.36218 0,100"
       inkscape:connector-curvature="0" />
    <g
       style="font-size:72px;font-style:normal;font-weight:normal;line-height:125%;letter-spacing:0px;word-spacing:0px;fill:#005500;fill-opacity:1;stroke:none;font-family:Sans;-inkscape-font-specification:Sans"
       id="text3767">
      <path
         d="m 259.8295,527.65906 6.5039,0 0,32.30859 19.30079,-16.98047 8.26171,0 -20.88281,18.42188 21.76172,20.95312 -8.4375,0 -20.00391,-19.23047 0,19.23047 -6.5039,0 0,-54.70312"
         style=""
         id="path2999" />
    </g>
  </g>
</svg>
